<?xml version="1.0" encoding="utf-8"?>
<!-- Generator: Adobe Illustrator 22.1.0, SVG Export Plug-In . SVG Version: 6.00 Build 0)  -->
<svg version="1.1" id="Capa_1" focusable="false" xmlns="http://www.w3.org/2000/svg" xmlns:xlink="http://www.w3.org/1999/xlink"
	 x="0px" y="0px" viewBox="0 0 496 512" style="enable-background:new 0 0 496 512;" xml:space="preserve">
<style type="text/css">
	.st0{fill:#7CC600;}
</style>
<path class="st0" d="M347.9,129.9l-144.3,66c-7,3.2-12.6,8.8-15.8,15.8l-66,144.3c-7.6,16.6,9.5,33.8,26.2,26.2l144.3-66
	c7-3.2,12.6-8.8,15.8-15.8l66-144.3C381.7,139.4,364.6,122.3,347.9,129.9L347.9,129.9z M270.6,278.6c-12.5,12.5-32.7,12.5-45.2,0
	s-12.5-32.7,0-45.2s32.7-12.5,45.2,0S283.1,266.1,270.6,278.6z M248,8C111,8,0,119,0,256s111,248,248,248s248-111,248-248
	S385,8,248,8z M248,456c-110.3,0-200-89.7-200-200S137.7,56,248,56s200,89.7,200,200S358.3,456,248,456z"/>
</svg>
