<?xml version="1.0" encoding="utf-8"?>
<!-- Generator: Adobe Illustrator 22.1.0, SVG Export Plug-In . SVG Version: 6.00 Build 0)  -->
<svg version="1.1" id="Capa_1" xmlns="http://www.w3.org/2000/svg" xmlns:xlink="http://www.w3.org/1999/xlink" x="0px" y="0px"
	 viewBox="0 0 612 612" style="enable-background:new 0 0 612 612;" xml:space="preserve">
<style type="text/css">
	.st0{fill:#7CC600;}
	.st1{fill:none;stroke:#7CC600;stroke-width:10;stroke-miterlimit:10;}
</style>
<g>
	<path class="st0" d="M459.9,311.8c10.5-3.8,21.7-5.8,33.5-5.8c11.6,0,22.7,2,33,5.7c-0.1-6.2-2.2-12.4-6.5-17.5
		c-53.4-63.5-131.4-99.9-213.9-99.9s-160.5,36.4-213.9,99.9c-9.9,11.8-8.4,29.4,3.4,39.4c5.2,4.4,11.6,6.6,18,6.6
		c8,0,15.9-3.4,21.4-10c42.7-50.8,105.1-80,171.1-80C363.6,250.1,418.5,272.3,459.9,311.8z"/>
	
		<ellipse transform="matrix(0.7071 -0.7071 0.7071 0.7071 -245.3018 355.1011)" class="st0" cx="306" cy="473.7" rx="55.9" ry="55.9"/>
	<path class="st0" d="M605.4,222.4C530.7,133.4,421.5,82.4,306,82.4S81.3,133.4,6.6,222.4c-9.9,11.8-8.4,29.4,3.4,39.4
		c5.2,4.4,11.6,6.6,17.9,6.6c8,0,15.9-3.4,21.4-10c64.1-76.2,157.6-120,256.7-120s192.6,43.7,256.7,120c5.5,6.6,13.5,10,21.4,10
		c6.4,0,12.7-2.1,18-6.6C613.8,251.8,615.4,234.2,605.4,222.4z"/>
	<path class="st0" d="M394.9,404.5c0-22,7.2-42.3,19.4-58.7C384.2,320.3,346,306,306,306c-49.6,0-96.3,21.9-128.3,59.9
		c-9.9,11.8-8.4,29.4,3.4,39.4c5.2,4.4,11.6,6.6,18,6.6c8,0,15.9-3.4,21.4-10c21.4-25.4,52.6-40,85.5-40s64.2,14.6,85.5,40
		c1.1,1.3,2.2,2.4,3.4,3.4C394.9,405,394.9,404.8,394.9,404.5z"/>
</g>
<circle class="st1" cx="495.8" cy="404.5" r="98.5"/>
<path class="st0" d="M498.2,417.8h-4.8c-2.2,0-3.9-1.8-3.9-3.9v-81.9c0-2.2,1.8-3.9,3.9-3.9h4.8c2.2,0,3.9,1.8,3.9,3.9v81.9
	C502.1,416,500.3,417.8,498.2,417.8z"/>
<circle class="st0" cx="495.8" cy="448.7" r="11.1"/>
</svg>
