<?xml version="1.0" encoding="utf-8"?>
<!-- Generator: Adobe Illustrator 22.1.0, SVG Export Plug-In . SVG Version: 6.00 Build 0)  -->
<svg version="1.1" id="Capa_1" xmlns="http://www.w3.org/2000/svg" xmlns:xlink="http://www.w3.org/1999/xlink" x="0px" y="0px"
	 viewBox="0 0 483.3 483.3" style="enable-background:new 0 0 483.3 483.3;" xml:space="preserve">
<style type="text/css">
	.st0{fill:#7CC600;}
</style>
<path class="st0" d="M28.7,6.7c-4.8,2.1-9.1,5.1-12.7,8.6C8.8,22.5,4.3,32.7,4.3,43.6l0,396.1c0.1,21.9,18.1,40.1,40.2,40.2
	l396.3,0.1c21.9-0.1,40.1-18.1,40.2-40.2l-0.1-396.3c-0.1-21.9-18.2-40.1-40.2-40.2l-396.5,0C38.8,3.4,33.5,4.6,28.7,6.7z
	 M39.1,31.7c1.5-0.7,3.3-0.9,5.1-0.9l396.3-0.1c7.3-0.1,12.6,5.5,12.7,12.7l0,329.7l-421.7,0L31.4,43.3
	C31.5,38.1,34.7,33.7,39.1,31.7L39.1,31.7z M31.5,400.7l421.7,0l0,39.3c0.1,7.3-5.4,12.8-12.7,12.7l-396.3,0.1
	c-7.3,0.1-12.8-5.4-12.7-12.9L31.5,400.7z M157.8,218.9c-1.8,0.8-3.8,2.2-4.9,3.8l-78.4,93.9c-11.9,13.2,10.8,30.9,21,17.5
	l70.6-84.7l72.8,46.7c5.8,3.7,13.5,2.5,18-2.7l70.6-84.7l72.8,46.7c14.9,9.8,29.6-13.8,14.8-23.1L332,179.2
	c-5.8-3.7-13.5-2.5-18,2.7l-70.6,84.7l-72.8-46.7C166.7,217.4,162,217,157.8,218.9z M121.2,86.1C87.8,96.6,72.7,135.1,90,165.5
	c12.6,22.1,39.4,32.7,63.8,25c33.4-10.5,48.5-49.1,31.2-79.5C172.3,88.9,145.5,78.4,121.2,86.1z M125,113.9c15-7.6,32.2-0.8,38,14.9
	c4.8,12.8-1,27.5-13.2,33.6c-15,7.6-32.2,0.8-38-14.9C107,134.7,112.8,120,125,113.9z"/>
</svg>       