<?xml version="1.0" encoding="utf-8"?>
<!-- Generator: Adobe Illustrator 22.1.0, SVG Export Plug-In . SVG Version: 6.00 Build 0)  -->
<svg version="1.1" id="Capa_1" focusable="false" xmlns="http://www.w3.org/2000/svg" xmlns:xlink="http://www.w3.org/1999/xlink"
	 x="0px" y="0px" viewBox="0 0 645 644" style="enable-background:new 0 0 645 644;" xml:space="preserve">
<style type="text/css">
	.st0{fill:#7CC600;}
</style>
<path class="st0" d="M322.3,4.2C146.8,4.2,4.5,146.5,4.5,322s142.3,317.8,317.8,317.8S640.1,497.5,640.1,322S497.8,4.2,322.3,4.2z
	 M322.3,609.3C163.6,609.3,35,480.7,35,322S163.6,34.7,322.3,34.7S609.6,163.3,609.6,322S481,609.3,322.3,609.3z"/>
<path class="st0" d="M260.2,476.2h16.4V331.7h-16.4c-9.1,0-16.4-9-16.4-20V264c0-11,7.3-20,16.4-20H352c9.1,0,16.4,9,16.4,20v212.2
	h16.4c9.1,0,16.4,9,16.4,20V544c0,11-7.3,20-16.4,20H260.2c-9.1,0-16.4-9-16.4-20v-47.8C243.8,485.1,251.1,476.2,260.2,476.2z
	 M314.5,80.1c-32.6,0-59,27.6-59,61.7s26.4,61.7,59,61.7s59-27.6,59-61.7S347.1,80.1,314.5,80.1z"/>
</svg>
