<?xml version="1.0" encoding="utf-8"?>
<!-- Generator: Adobe Illustrator 22.1.0, SVG Export Plug-In . SVG Version: 6.00 Build 0)  -->
<svg version="1.1" id="Capa_1" xmlns="http://www.w3.org/2000/svg" xmlns:xlink="http://www.w3.org/1999/xlink" x="0px" y="0px"
	 viewBox="0 0 566.7 621" style="enable-background:new 0 0 566.7 621;" xml:space="preserve">
<style type="text/css">
	.st0{fill:#FEFEFE;}
	.st1{fill:#002525;}
</style>
<path class="st0" d="M343.3,236.8c-48.3,0-96.5,0-144.8,0c-0.3-1.2,0.7-0.7,1.1-0.7c47.5,0,95,0,142.5,0
	C342.6,236.1,343.5,235.6,343.3,236.8z"/>
<path class="st1" d="M560.3,207.5c-0.6-36.6-17.3-65.5-48.2-84.1C453.3,88,393.7,53.8,333.7,20.3C302.2,2.6,268.3,2,236.7,19.6
	C175.6,53.5,115.1,88.5,55.2,124.3C24.6,142.6,8.5,172,7.9,207.3c-1.2,69.3-1.2,138.6,0,207.9c0.6,34,16,63.1,45,80.7
	c61.2,37.2,123.2,73,186,107.4c31,17,64.5,15.5,95.5-2c58.8-33.1,117.3-66.9,175.4-101.3c32.9-19.5,50.4-49.2,50.7-88
	c0.3-33.8,0.1-67.6,0-101.3C560.4,276.2,560.9,241.8,560.3,207.5z M25.1,249.7C13.4,184.5,44.4,145.5,100.9,118
	c44.4-21.6,86.3-48.3,128.6-73.9c35.6-21.5,69.4-21,105,0.5c50.3,30.4,101.3,59.7,152.6,88.2c35.2,19.6,52.6,48.1,50.7,88.2
	c-0.2,5.2,3.2,12.5-4.7,15c-6.9,2.2-12-1.6-16.9-6.5c-25-25.2-50.2-50.3-75.3-75.3c-18.7-18.7-18.7-18.7-37.1-0.4
	c-28.5,28.3-57.2,56.4-85.3,85.1c-7,7.2-11.1,6.9-17.9-0.1c-26-26.7-52.5-52.8-78.9-79.2c-20-20-20.1-20-40.7,0.6
	C136.1,205.1,91.3,250,46.3,294.7c-4.7,4.7-9,12.7-17.1,9.1c-7.4-3.3-3.8-11.4-4-17.4C24.7,274.2,25.1,262,25.1,249.7z M326.6,262.5
	c0-2.8,3.1-5.9,5.4-8.3c27.4-27.6,55-55.1,82.5-82.6c3.8-3.8,7.2-7.8,12.8-2c21.5,21.8,43.2,43.4,67.8,68.1
	c-50.4,4.8-89,28.1-129.2,47.6C355.8,290.3,326.7,273.8,326.6,262.5z M332.8,299.8c-52.7,20.8-104.5,30.3-157.5,33.9
	c-4.4,0.3-9.2-1.3-13.3-3.1c-29.5-12.7-59.7-22.9-91.7-25.6c-1.6-5.1,2.1-7,4.4-9.3c39.1-39.2,78.2-78.3,117.4-117.4
	c4.7-4.7,8.3-11.4,16.5-3C248.9,216.3,289.8,256.8,332.8,299.8z M87.5,493.9c-40.4-19.2-64.7-48.4-62.5-95.6
	c0.9-19.2,0.9-38.5-0.1-57.7c-0.6-12.5,4.5-16.2,16-16.4c38-0.5,74.2,7.6,108.5,23.4c58.9,27.1,118.6,51.7,183,62.6
	c2.2,0.4,4.7,0.7,5.4,5.7c-41,6.3-81.8,13-121.9,22.7c-42.1,10.3-83.3,23-116.1,53.6C95.8,495.9,92.6,496.3,87.5,493.9z
	 M537.9,410.6c-0.9,30.9-14.6,55.3-41,70.9c-58.2,34.4-116.7,68.1-175.6,101.2c-25.6,14.4-52.8,14.6-78.6,0.3
	c-39.7-22-78.6-45.5-118.3-67.7c-11.2-6.2-9.7-10.2-0.7-16.8c23.9-17.6,51.1-27.6,79.3-35.4c45-12.5,91.3-18.6,137-27.4
	c70.3-13.6,141.2-25.8,198-82C538,375.7,538.4,393.2,537.9,410.6z M468.4,378.6c-33.6,17.6-68.1,22.4-106.1,15.8
	c-50.5-8.8-100-19.8-148.5-41.3c10.7-5.8,20.7-5.4,30.1-7c56.8-9.7,109.8-29.9,160.4-57.1c36.8-19.8,75.3-33.4,118.1-32.3
	c12,0.3,14.5,3.9,16.1,15.8C545.9,328.8,511.3,356.2,468.4,378.6z"/>
</svg>
